<svg xmlns="http://www.w3.org/2000/svg" viewBox="0 0 712 260" width="712" height="260">
<defs>
  <linearGradient id="nav-logo-gradient" x1="356" y1="0" x2="356" y2="260" gradientUnits="userSpaceOnUse">
    <stop offset="0%" stop-color="#b38f78"/>
    <stop offset="52%" stop-color="#c99c81"/>
    <stop offset="100%" stop-color="#b38f78"/>
  </linearGradient>
</defs>
<path fill="url(#nav-logo-gradient)" fill-rule="evenodd" d="
M 623 213 L 625 218 L 628 221 L 636 225 L 642 225 L 643 224 L 645 224 L 650 220 L 648 217 L 642 220 L 636 220 L 632 218 L 627 212 L 624 212 Z M 567 212 L 566 213 L 566 217 L 567 218 L 569 218 L 573 216 L 582 216 L 585 219 L 585 221 L 584 222 L 574 222 L 573 223 L 569 223 L 566 225 L 563 230 L 565 237 L 569 240 L 572 240 L 573 241 L 580 240 L 584 238 L 587 240 L 592 240 L 593 239 L 593 219 L 591 214 L 589 212 L 584 210 L 572 210 Z M 571 232 L 571 231 L 575 227 L 584 227 L 585 228 L 584 231 L 579 235 L 574 235 Z M 495 212 L 491 216 L 489 220 L 489 231 L 490 233 L 495 238 L 499 240 L 506 241 L 507 240 L 511 240 L 515 238 L 517 236 L 516 232 L 512 232 L 509 234 L 503 234 L 501 233 L 497 229 L 497 221 L 503 216 L 509 216 L 510 217 L 515 218 L 517 215 L 516 213 L 510 210 L 500 210 Z M 452 210 L 450 212 L 450 232 L 451 233 L 451 235 L 455 239 L 460 240 L 461 241 L 467 240 L 472 237 L 474 240 L 479 240 L 480 239 L 480 211 L 479 210 L 474 210 L 472 212 L 472 228 L 467 234 L 462 234 L 459 232 L 459 230 L 458 229 L 458 211 L 456 210 Z M 396 212 L 395 213 L 395 216 L 397 218 L 402 216 L 406 216 L 407 215 L 408 216 L 411 216 L 414 219 L 414 221 L 413 222 L 402 222 L 401 223 L 396 224 L 392 230 L 393 236 L 396 239 L 398 240 L 402 240 L 403 241 L 405 240 L 410 240 L 414 237 L 416 240 L 422 240 L 422 218 L 420 214 L 418 212 L 413 210 L 402 210 L 401 211 Z M 400 232 L 401 229 L 404 227 L 413 227 L 414 228 L 413 232 L 408 235 L 403 235 Z M 335 212 L 335 238 L 336 240 L 342 240 L 343 239 L 343 226 L 344 225 L 344 221 L 345 219 L 349 216 L 352 216 L 355 218 L 355 220 L 356 221 L 356 239 L 357 240 L 362 240 L 364 238 L 364 222 L 369 216 L 373 216 L 376 219 L 376 238 L 378 240 L 383 240 L 385 237 L 385 220 L 384 219 L 384 216 L 381 212 L 377 210 L 369 210 L 368 211 L 366 211 L 363 214 L 357 210 L 349 210 L 348 211 L 346 211 L 344 213 L 341 210 L 337 210 Z M 632 205 L 634 208 L 638 208 L 641 210 L 644 210 L 645 209 L 645 207 L 640 204 L 633 204 Z M 526 198 L 525 199 L 525 239 L 526 240 L 532 240 L 533 239 L 533 222 L 537 217 L 539 216 L 544 216 L 547 219 L 547 221 L 548 222 L 548 239 L 549 240 L 554 240 L 556 238 L 556 219 L 553 213 L 548 210 L 539 210 L 538 211 L 536 211 L 534 213 L 533 212 L 533 199 L 532 198 Z M 433 198 L 432 200 L 432 238 L 433 240 L 439 240 L 440 239 L 440 199 L 439 198 Z M 663 197 L 659 197 L 655 202 L 655 205 L 658 209 L 661 209 L 664 206 L 665 200 Z M 624 187 L 619 188 L 617 191 L 617 196 L 621 199 L 622 198 L 624 198 L 627 193 L 627 191 Z M 641 170 L 639 172 L 639 180 L 640 181 L 640 183 L 643 186 L 646 186 L 648 184 L 650 184 L 653 181 L 653 173 L 652 172 L 650 173 L 646 178 L 644 176 L 644 174 Z M 170 101 L 169 103 L 169 113 L 172 117 L 182 116 L 183 115 L 190 115 L 191 114 L 205 114 L 206 113 L 210 113 L 211 114 L 209 115 L 165 158 L 164 160 L 164 168 L 165 169 L 165 171 L 167 172 L 180 172 L 181 171 L 203 171 L 204 172 L 210 172 L 211 173 L 216 173 L 217 174 L 221 174 L 222 175 L 230 175 L 233 171 L 233 165 L 232 163 L 229 161 L 227 161 L 223 159 L 219 159 L 218 158 L 212 158 L 211 157 L 194 157 L 193 158 L 191 158 L 190 157 L 195 152 L 195 151 L 199 147 L 200 147 L 203 143 L 231 115 L 235 109 L 235 103 L 231 100 L 224 100 L 223 99 L 182 99 L 181 100 L 172 100 Z M 567 65 L 566 70 L 565 71 L 565 74 L 567 79 L 572 83 L 574 83 L 575 84 L 582 84 L 583 83 L 585 83 L 589 81 L 593 75 L 593 68 L 591 64 L 588 61 L 584 59 L 575 59 L 571 61 Z M 312 101 L 312 104 L 311 105 L 312 106 L 312 108 L 315 110 L 320 110 L 321 111 L 321 114 L 320 115 L 320 122 L 319 123 L 319 130 L 318 131 L 318 141 L 317 142 L 318 156 L 321 164 L 326 169 L 333 172 L 343 172 L 344 171 L 350 170 L 360 164 L 365 159 L 366 159 L 374 167 L 382 171 L 384 171 L 385 172 L 390 172 L 391 173 L 400 173 L 401 172 L 407 172 L 408 171 L 414 170 L 424 165 L 433 158 L 435 161 L 436 165 L 441 170 L 446 172 L 457 172 L 458 171 L 461 171 L 467 168 L 473 163 L 476 171 L 478 171 L 479 172 L 491 172 L 492 171 L 494 171 L 496 168 L 496 159 L 497 158 L 497 154 L 505 135 L 511 126 L 517 120 L 522 119 L 524 121 L 524 133 L 523 134 L 522 146 L 521 147 L 521 161 L 525 168 L 532 172 L 545 172 L 546 171 L 548 171 L 554 168 L 562 161 L 564 165 L 569 170 L 574 172 L 584 172 L 585 171 L 590 170 L 592 168 L 595 167 L 603 160 L 605 164 L 608 167 L 612 167 L 616 164 L 627 159 L 630 159 L 631 158 L 644 158 L 645 159 L 650 159 L 651 160 L 654 160 L 657 162 L 659 162 L 666 166 L 674 173 L 679 180 L 683 190 L 685 207 L 686 208 L 688 208 L 691 212 L 691 216 L 689 221 L 684 225 L 680 224 L 669 236 L 660 241 L 654 242 L 653 243 L 641 243 L 640 242 L 636 242 L 629 239 L 628 240 L 628 242 L 633 245 L 640 246 L 641 247 L 655 247 L 656 246 L 662 245 L 670 241 L 682 229 L 686 229 L 688 228 L 693 223 L 695 218 L 695 211 L 694 210 L 694 208 L 689 203 L 688 191 L 687 190 L 685 182 L 678 171 L 687 165 L 692 160 L 693 158 L 693 150 L 692 149 L 690 150 L 686 154 L 681 157 L 675 157 L 672 154 L 672 134 L 673 133 L 673 127 L 674 126 L 674 121 L 675 120 L 675 115 L 676 114 L 676 103 L 673 101 L 665 101 L 657 105 L 654 102 L 648 99 L 645 99 L 644 98 L 635 98 L 634 99 L 628 100 L 622 103 L 612 111 L 604 124 L 604 126 L 602 129 L 602 132 L 601 133 L 601 137 L 600 138 L 600 149 L 599 151 L 595 155 L 591 157 L 585 157 L 582 153 L 582 137 L 583 136 L 584 123 L 585 122 L 585 117 L 586 116 L 586 104 L 584 101 L 579 99 L 571 99 L 570 100 L 567 100 L 564 102 L 565 104 L 565 109 L 564 110 L 564 119 L 563 120 L 562 134 L 561 135 L 561 149 L 554 156 L 550 158 L 546 158 L 542 153 L 542 147 L 543 146 L 544 134 L 545 133 L 545 126 L 546 125 L 546 110 L 544 105 L 540 101 L 536 99 L 526 99 L 519 102 L 515 106 L 514 106 L 507 114 L 500 126 L 499 125 L 499 120 L 500 119 L 500 115 L 501 114 L 501 104 L 498 100 L 496 100 L 495 99 L 486 99 L 481 101 L 479 103 L 480 111 L 479 112 L 479 122 L 478 123 L 478 131 L 477 132 L 477 138 L 476 139 L 476 146 L 467 156 L 461 158 L 460 157 L 458 157 L 456 155 L 456 153 L 455 152 L 455 137 L 456 136 L 457 121 L 458 120 L 458 114 L 459 113 L 460 101 L 461 100 L 461 94 L 462 93 L 462 87 L 463 86 L 463 80 L 464 79 L 464 71 L 465 70 L 465 56 L 464 54 L 462 53 L 458 53 L 457 52 L 455 52 L 454 53 L 448 53 L 447 54 L 445 54 L 443 56 L 442 80 L 441 81 L 441 87 L 440 88 L 440 96 L 439 97 L 439 104 L 438 105 L 438 111 L 437 112 L 437 120 L 436 121 L 436 128 L 435 129 L 434 144 L 422 155 L 416 158 L 410 159 L 409 160 L 398 160 L 393 158 L 387 152 L 385 146 L 386 145 L 390 145 L 391 144 L 396 144 L 397 143 L 403 142 L 406 140 L 408 140 L 417 135 L 423 129 L 426 123 L 427 113 L 426 112 L 425 107 L 419 101 L 414 99 L 410 99 L 409 98 L 399 98 L 398 99 L 394 99 L 393 100 L 388 101 L 378 107 L 369 117 L 365 125 L 365 127 L 363 131 L 363 135 L 362 136 L 362 147 L 363 149 L 357 155 L 353 157 L 344 157 L 342 156 L 339 151 L 339 147 L 338 146 L 339 131 L 340 130 L 340 122 L 341 121 L 342 111 L 343 110 L 357 110 L 362 108 L 364 105 L 364 101 L 363 100 L 345 100 L 344 99 L 345 98 L 345 93 L 346 92 L 346 88 L 347 87 L 350 72 L 348 70 L 343 68 L 336 68 L 331 70 L 328 73 L 323 99 L 322 100 L 313 100 Z M 651 112 L 654 116 L 654 118 L 653 119 L 653 126 L 652 127 L 651 137 L 649 140 L 649 142 L 647 145 L 646 149 L 643 153 L 632 153 L 631 154 L 625 154 L 623 151 L 623 134 L 624 133 L 625 127 L 629 119 L 636 112 L 640 110 L 647 110 Z M 405 109 L 408 113 L 408 120 L 406 125 L 399 132 L 390 136 L 386 136 L 385 135 L 386 128 L 387 127 L 388 122 L 393 114 L 400 109 Z M 32 66 L 23 84 L 23 86 L 20 93 L 20 96 L 19 97 L 18 106 L 17 107 L 16 133 L 17 134 L 17 143 L 19 148 L 19 152 L 20 153 L 23 164 L 27 172 L 37 187 L 52 202 L 71 215 L 77 218 L 79 218 L 84 221 L 86 221 L 96 225 L 99 225 L 104 227 L 109 227 L 110 228 L 117 228 L 118 229 L 145 229 L 146 228 L 156 228 L 157 227 L 170 226 L 171 225 L 175 225 L 176 224 L 181 224 L 182 223 L 192 222 L 193 221 L 200 221 L 201 220 L 219 221 L 220 222 L 224 222 L 237 227 L 253 227 L 254 226 L 257 226 L 258 225 L 263 224 L 273 219 L 286 207 L 292 198 L 293 194 L 297 186 L 297 183 L 300 175 L 301 164 L 302 163 L 303 147 L 304 146 L 304 136 L 305 135 L 305 123 L 306 122 L 306 106 L 307 105 L 307 103 L 305 100 L 291 100 L 287 102 L 284 132 L 276 148 L 272 153 L 267 156 L 263 155 L 261 153 L 261 151 L 260 150 L 260 139 L 261 138 L 261 132 L 262 131 L 263 120 L 264 119 L 264 115 L 265 114 L 265 110 L 266 109 L 265 102 L 263 100 L 261 100 L 260 99 L 249 99 L 248 100 L 246 100 L 244 103 L 244 109 L 243 110 L 243 116 L 242 117 L 241 130 L 240 131 L 240 139 L 239 140 L 239 153 L 240 154 L 241 161 L 243 164 L 248 169 L 252 171 L 264 171 L 273 166 L 280 158 L 280 157 L 281 156 L 282 157 L 282 162 L 281 163 L 281 170 L 280 171 L 279 181 L 278 182 L 277 188 L 272 199 L 267 206 L 259 213 L 249 217 L 246 217 L 244 214 L 244 199 L 236 193 L 230 190 L 228 190 L 218 186 L 215 186 L 214 185 L 202 184 L 201 183 L 179 183 L 178 182 L 173 182 L 172 183 L 151 183 L 150 182 L 143 182 L 142 181 L 139 181 L 126 175 L 116 165 L 110 155 L 110 153 L 108 150 L 106 140 L 105 139 L 104 125 L 105 124 L 105 117 L 106 116 L 106 113 L 107 112 L 108 107 L 115 93 L 129 77 L 140 69 L 155 62 L 157 62 L 161 60 L 165 60 L 166 59 L 172 59 L 173 58 L 192 59 L 193 60 L 197 60 L 198 61 L 202 61 L 204 60 L 204 58 L 205 57 L 205 36 L 203 34 L 201 34 L 200 33 L 190 33 L 189 32 L 176 32 L 175 33 L 168 33 L 167 34 L 163 34 L 162 35 L 159 35 L 158 36 L 152 37 L 149 39 L 147 39 L 131 47 L 122 53 L 114 60 L 113 60 L 102 71 L 102 72 L 94 81 L 91 87 L 87 92 L 82 103 L 82 105 L 78 115 L 77 125 L 76 126 L 76 137 L 75 138 L 76 140 L 76 151 L 77 152 L 78 161 L 79 162 L 80 167 L 83 172 L 83 174 L 85 176 L 87 181 L 91 187 L 103 199 L 119 208 L 125 209 L 126 210 L 130 210 L 131 211 L 152 211 L 153 210 L 164 209 L 165 208 L 169 208 L 170 207 L 174 207 L 175 206 L 181 206 L 182 205 L 203 204 L 204 205 L 212 205 L 213 206 L 221 207 L 233 212 L 234 214 L 232 215 L 228 213 L 220 212 L 219 211 L 215 211 L 214 210 L 194 210 L 193 211 L 188 211 L 187 212 L 182 212 L 181 213 L 172 214 L 171 215 L 163 216 L 158 218 L 144 219 L 143 220 L 133 220 L 132 219 L 120 218 L 119 217 L 114 216 L 96 206 L 84 194 L 79 187 L 77 182 L 75 180 L 72 174 L 72 172 L 68 162 L 68 159 L 67 158 L 67 153 L 66 152 L 66 128 L 67 127 L 67 122 L 68 121 L 69 113 L 70 112 L 73 101 L 79 89 L 89 74 L 106 56 L 107 56 L 116 48 L 125 43 L 127 41 L 141 34 L 143 34 L 153 30 L 156 30 L 157 29 L 161 29 L 162 28 L 166 28 L 167 27 L 175 27 L 176 26 L 187 26 L 188 27 L 204 28 L 205 26 L 203 24 L 188 18 L 185 18 L 184 17 L 181 17 L 176 15 L 172 15 L 171 14 L 158 13 L 157 12 L 119 12 L 118 13 L 112 13 L 111 14 L 102 15 L 98 17 L 92 18 L 80 24 L 78 24 L 63 33 L 55 40 L 54 40 L 43 51 Z M 123 62 L 138 52 L 146 48 L 148 48 L 151 46 L 153 46 L 160 43 L 168 42 L 169 41 L 178 41 L 179 40 L 195 41 L 197 43 L 195 48 L 187 48 L 186 47 L 166 48 L 165 49 L 157 50 L 156 51 L 151 52 L 148 54 L 146 54 L 138 58 L 126 66 L 120 72 L 119 72 L 110 82 L 100 98 L 100 100 L 97 105 L 97 107 L 95 111 L 95 114 L 94 115 L 93 128 L 92 129 L 94 149 L 95 150 L 97 158 L 104 171 L 115 182 L 121 185 L 123 187 L 125 187 L 128 189 L 130 189 L 134 191 L 137 191 L 138 192 L 145 192 L 146 193 L 165 193 L 166 192 L 204 192 L 205 193 L 211 193 L 212 194 L 215 194 L 216 195 L 219 195 L 220 196 L 225 197 L 235 203 L 234 205 L 218 199 L 214 199 L 213 198 L 209 198 L 208 197 L 177 197 L 176 198 L 162 199 L 161 200 L 151 200 L 150 201 L 133 200 L 132 199 L 122 197 L 114 193 L 107 188 L 100 181 L 95 174 L 90 164 L 90 162 L 88 159 L 88 156 L 87 155 L 87 151 L 86 150 L 86 141 L 85 140 L 87 119 L 88 118 L 88 114 L 89 113 L 90 108 L 92 105 L 93 100 L 96 96 L 99 89 L 106 79 L 112 73 L 112 72 Z M 124 53 L 148 40 L 150 40 L 157 37 L 164 36 L 165 35 L 170 35 L 171 34 L 196 34 L 197 35 L 197 39 L 196 40 L 192 40 L 191 39 L 173 39 L 172 40 L 167 40 L 166 41 L 159 42 L 158 43 L 147 46 L 137 51 L 122 61 L 116 67 L 115 67 L 99 86 L 89 106 L 89 108 L 86 115 L 85 126 L 84 127 L 84 146 L 85 147 L 86 157 L 87 158 L 88 163 L 97 179 L 100 183 L 110 192 L 119 197 L 121 197 L 127 200 L 138 201 L 139 202 L 153 202 L 154 201 L 164 201 L 165 200 L 181 199 L 182 198 L 204 198 L 205 199 L 211 199 L 212 200 L 215 200 L 216 201 L 219 201 L 220 202 L 223 202 L 226 204 L 228 204 L 234 208 L 233 210 L 223 206 L 215 205 L 214 204 L 209 204 L 208 203 L 188 203 L 187 204 L 180 204 L 179 205 L 173 205 L 172 206 L 167 206 L 166 207 L 162 207 L 161 208 L 146 209 L 145 210 L 128 209 L 127 208 L 124 208 L 123 207 L 118 206 L 115 204 L 113 204 L 111 202 L 105 199 L 96 191 L 96 190 L 89 182 L 81 166 L 79 156 L 78 155 L 78 149 L 77 148 L 77 129 L 78 128 L 78 122 L 79 121 L 81 110 L 90 90 L 98 78 L 114 61 L 115 61 Z
"/>
</svg>
